<?xml version="1.0" standalone="no"?>
<!DOCTYPE svg PUBLIC "-//W3C//DTD SVG 20010904//EN"
 "http://www.w3.org/TR/2001/REC-SVG-20010904/DTD/svg10.dtd">
<svg version="1.0" xmlns="http://www.w3.org/2000/svg"
 width="800.000000pt" height="800.000000pt" viewBox="0 0 800.000000 800.000000"
 preserveAspectRatio="xMidYMid meet">

<g transform="translate(0.000000,800.000000) scale(0.100000,-0.100000)"
fill="#000000" stroke="none">
<path d="M0 7973 l0 -26 25 23 c14 13 25 25 25 27 0 2 -11 3 -25 3 -20 0 -25
-5 -25 -27z"/>
<path d="M55 7926 c-54 -71 -56 -77 -53 -127 l3 -53 55 69 c30 39 76 96 103
128 l49 57 -51 0 -51 0 -55 -74z"/>
<path d="M267 7987 c-2 -7 -64 -88 -136 -180 l-132 -168 3 -54 3 -55 110 143
c60 78 145 184 187 235 l78 92 -54 0 c-34 0 -56 -5 -59 -13z"/>
<path d="M383 7918 c-34 -46 -134 -175 -222 -288 l-161 -205 0 -52 c0 -29 2
-53 4 -53 2 0 64 78 137 173 73 94 185 237 249 316 63 79 123 154 133 167 l19
24 -49 0 -49 0 -61 -82z"/>
<path d="M580 7953 c-19 -26 -151 -196 -294 -378 -142 -181 -265 -340 -273
-352 -9 -13 -13 -40 -11 -69 l3 -48 139 179 c228 293 436 556 496 625 80 92
79 90 23 90 -45 -1 -50 -3 -83 -47z"/>
<path d="M737 7933 c-29 -38 -129 -165 -222 -283 -93 -118 -228 -289 -300
-380 -223 -282 -217 -271 -213 -327 l3 -48 87 110 c47 61 164 209 259 330 142
182 405 510 508 636 l24 29 -46 0 c-45 0 -48 -2 -100 -67z"/>
<path d="M838 7847 c-64 -84 -196 -253 -294 -377 -98 -124 -203 -257 -233
-296 -31 -39 -113 -144 -183 -232 -126 -159 -128 -163 -128 -212 0 -28 4 -49
9 -46 4 3 125 155 267 338 204 263 544 692 752 949 l23 29 -48 -1 -48 0 -117
-152z"/>
<path d="M1080 7937 c-40 -55 -142 -185 -664 -847 -429 -545 -416 -526 -416
-584 0 -26 4 -45 9 -42 4 3 66 81 137 173 119 156 434 559 598 768 63 80 393
491 455 566 l24 29 -49 0 c-48 -1 -50 -1 -94 -63z"/>
<path d="M1213 7886 c-71 -93 -619 -789 -1120 -1424 -87 -111 -92 -120 -93
-166 0 -43 2 -47 16 -35 8 7 138 170 288 363 579 746 847 1087 985 1251 117
139 111 125 58 125 l-46 0 -88 -114z"/>
<path d="M1394 7898 c-43 -57 -241 -308 -439 -559 -198 -251 -454 -577 -569
-725 -115 -148 -231 -294 -256 -324 -109 -129 -130 -164 -130 -214 0 -26 4
-45 9 -42 9 6 450 572 566 726 27 36 90 117 140 180 50 63 149 189 220 280
156 200 398 502 530 663 l96 117 -44 0 -44 0 -79 -102z"/>
<path d="M1553 7887 c-44 -62 -215 -281 -378 -487 -164 -206 -374 -474 -468
-595 -94 -121 -261 -334 -371 -473 -365 -461 -336 -419 -336 -481 l0 -54 58
74 c57 72 239 309 492 639 264 344 824 1054 1027 1303 l153 187 -47 -1 -48 0
-82 -112z"/>
<path d="M1718 7878 c-51 -68 -178 -231 -283 -363 -104 -132 -206 -260 -225
-285 -19 -25 -75 -97 -125 -160 -102 -129 -309 -395 -519 -665 -77 -99 -214
-274 -306 -390 -277 -351 -262 -328 -258 -382 l3 -48 170 220 c94 121 229 297
300 390 434 571 1307 1678 1398 1773 l31 32 -47 0 -46 0 -93 -122z"/>
<path d="M1955 7973 c-39 -61 -389 -512 -810 -1043 -50 -63 -151 -194 -225
-290 -166 -217 -479 -617 -700 -895 -237 -299 -222 -276 -218 -331 l3 -47 186
239 c102 132 214 277 249 324 35 47 125 164 199 260 74 96 218 283 320 415
205 267 469 602 848 1078 l253 317 -44 0 c-37 0 -47 -4 -61 -27z"/>
<path d="M2094 7933 c-68 -97 -213 -286 -404 -528 -92 -115 -281 -356 -420
-535 -266 -340 -284 -364 -629 -809 -118 -152 -291 -373 -386 -491 -255 -320
-255 -320 -255 -370 0 -38 2 -41 16 -29 19 16 403 510 699 899 242 319 270
355 423 550 62 80 178 228 257 330 79 102 217 277 307 390 90 113 221 280 293
370 71 91 154 193 183 228 l53 62 -45 0 c-43 0 -45 -1 -92 -67z"/>
<path d="M2211 7866 c-93 -126 -155 -206 -577 -746 -255 -326 -814 -1047 -978
-1260 -82 -107 -240 -307 -350 -443 -320 -396 -308 -378 -304 -435 l3 -48 150
190 c82 105 265 343 407 528 240 315 397 519 508 663 26 33 139 179 252 325
257 334 547 703 840 1073 l228 287 -40 0 c-38 0 -40 -2 -139 -134z"/>
<path d="M2391 7884 c-82 -114 -220 -293 -514 -669 -82 -104 -203 -261 -270
-349 -67 -87 -180 -233 -251 -325 -72 -91 -222 -285 -334 -431 -250 -323 -619
-794 -778 -990 -223 -276 -244 -307 -244 -359 0 -45 0 -45 19 -26 29 30 570
730 930 1203 74 98 225 294 336 437 111 143 210 272 221 287 10 15 24 28 30
28 13 0 54 -42 54 -56 0 -5 -19 -34 -43 -64 -24 -30 -98 -127 -165 -215 -232
-306 -890 -1149 -1116 -1430 -283 -351 -267 -329 -264 -385 l3 -49 210 272
c116 150 287 373 380 496 94 123 221 289 284 370 63 80 178 229 256 331 77
102 190 249 250 326 61 78 139 180 175 228 36 47 68 86 72 86 4 0 19 -11 35
-24 l27 -24 -58 -73 c-33 -41 -75 -91 -94 -111 -20 -21 -37 -45 -38 -53 -7
-44 -131 -211 -169 -225 -12 -5 -26 -13 -30 -19 -4 -7 0 -8 10 -5 17 7 -16
-42 -130 -190 -152 -196 -845 -1079 -955 -1216 -64 -80 -142 -179 -174 -222
-53 -71 -57 -79 -54 -124 l3 -48 161 209 c88 116 238 313 333 438 186 247 193
256 493 642 111 143 236 305 279 361 102 132 138 164 188 164 l38 0 -39 -42
c-47 -50 -87 -105 -70 -94 24 15 10 -11 -46 -85 -95 -126 -328 -424 -473 -605
-75 -94 -178 -227 -230 -295 -94 -126 -293 -378 -516 -657 -120 -150 -123
-155 -123 -203 0 -27 2 -49 4 -49 7 0 296 376 546 710 134 179 298 395 365
480 67 85 168 216 225 290 157 205 249 319 264 327 8 4 34 36 59 69 25 34 51
65 59 70 8 5 6 -2 -4 -16 -28 -39 -64 -111 -78 -155 -7 -22 -18 -47 -24 -55
-7 -8 -18 -28 -26 -45 -18 -35 -270 -372 -450 -600 -70 -88 -201 -259 -292
-380 -92 -121 -275 -355 -407 -520 l-241 -300 1 -55 0 -55 21 29 c12 16 80
104 152 195 72 92 203 263 291 381 88 118 228 305 310 415 459 609 551 733
561 750 11 20 -2 -71 -23 -160 -10 -40 -123 -196 -398 -551 -61 -78 -157 -206
-215 -285 -57 -79 -219 -287 -360 -464 -349 -437 -340 -425 -340 -477 l1 -43
39 43 c21 24 76 92 122 152 46 59 161 210 255 333 95 124 230 306 300 404 166
231 466 628 509 673 18 19 47 50 64 69 17 18 33 32 35 29 7 -6 -23 -99 -40
-125 -9 -13 -13 -23 -10 -23 19 0 -277 -408 -406 -558 -11 -13 -24 -34 -29
-48 -18 -47 -209 -291 -746 -956 -89 -111 -94 -119 -94 -164 0 -48 0 -48 19
-29 61 62 584 741 749 973 52 72 98 132 102 132 7 0 50 -65 50 -75 0 -3 -8 -1
-18 2 -16 6 -16 6 0 -10 15 -16 9 -26 -95 -159 -136 -171 -544 -681 -697 -870
-110 -137 -111 -138 -108 -185 l3 -48 180 225 c99 124 303 389 453 590 276
367 309 410 323 410 4 0 21 -12 38 -26 l31 -26 -38 -46 c-20 -26 -40 -49 -43
-52 -3 -3 -13 -18 -21 -35 -8 -16 -20 -29 -26 -28 -7 2 -12 -4 -12 -12 0 -17
-201 -279 -409 -534 -69 -85 -171 -209 -226 -277 -55 -67 -135 -165 -177 -218
-75 -91 -78 -96 -78 -148 l0 -53 29 35 c15 19 66 83 112 142 46 58 147 187
225 285 185 233 538 703 558 741 9 17 21 36 29 44 11 11 70 90 72 95 0 1 13 5
29 9 24 6 28 4 23 -9 -6 -17 31 -47 58 -47 28 0 6 -17 -30 -24 -20 -4 -33 -11
-30 -17 4 -5 -1 -9 -9 -9 -9 0 -16 -4 -16 -10 0 -5 10 -10 22 -10 41 0 2 -17
-44 -19 -11 -1 -15 -6 -12 -15 6 -15 -39 -35 -69 -30 -9 1 -15 -2 -11 -7 3 -5
18 -9 33 -9 36 0 45 -9 26 -29 -22 -24 -56 -67 -220 -276 -82 -104 -217 -272
-300 -373 -82 -101 -223 -274 -312 -385 -155 -192 -163 -204 -163 -246 l0 -44
21 19 c19 17 96 112 463 578 66 83 207 268 314 411 107 143 200 266 207 273 7
8 39 16 71 18 32 3 66 7 74 9 9 3 7 -2 -5 -10 -11 -9 -19 -18 -17 -20 1 -3 0
-5 -3 -5 -3 0 -18 -14 -35 -32 -30 -31 -41 -56 -18 -42 7 5 -6 -14 -28 -41
-23 -28 -102 -126 -176 -220 -123 -155 -548 -676 -776 -952 -92 -110 -93 -113
-90 -160 l3 -48 125 154 c238 293 645 811 822 1047 58 77 129 160 158 185 28
24 73 63 99 87 27 23 51 42 55 42 3 0 -1 -17 -10 -37 -30 -72 -30 -70 -9 -53
33 25 -15 -45 -84 -125 -33 -38 -151 -185 -263 -325 -112 -141 -253 -316 -314
-390 -634 -767 -586 -704 -582 -762 l3 -43 230 286 c312 388 560 703 751 953
169 224 271 347 292 354 7 2 12 -5 12 -17 0 -21 59 -116 67 -108 2 3 -3 19
-11 36 -20 39 -20 58 4 101 l19 35 1 -65 c1 -36 3 -78 5 -95 4 -29 -9 -55 -26
-55 -15 0 -49 63 -49 90 l0 24 -16 -23 c-13 -17 -14 -25 -5 -31 8 -5 -12 -40
-65 -111 -141 -190 -521 -660 -899 -1114 -344 -413 -317 -375 -313 -432 l3
-48 436 545 c390 487 652 824 806 1037 36 49 51 78 46 90 -3 10 15 -2 41 -27
25 -24 46 -48 46 -53 0 -21 -633 -813 -1025 -1282 -370 -444 -355 -424 -355
-481 l1 -49 22 26 c164 194 977 1223 1215 1539 85 113 158 206 162 208 4 1 15
-24 24 -58 l17 -60 -58 -74 c-187 -237 -832 -1038 -908 -1127 -110 -129 -398
-478 -443 -536 -28 -36 -33 -49 -30 -88 l3 -46 100 123 c285 353 604 755 886
1118 474 609 461 594 471 576 5 -9 15 -33 22 -54 l14 -38 -457 -570 c-251
-314 -588 -729 -748 -922 -292 -350 -293 -351 -293 -398 0 -41 2 -45 16 -33
32 27 648 798 970 1214 312 405 386 499 456 588 l78 98 23 -53 23 -52 -114
-146 c-63 -80 -201 -253 -308 -385 -106 -132 -248 -310 -315 -395 -125 -158
-533 -655 -723 -880 -103 -122 -105 -126 -105 -175 l0 -50 27 31 c107 121 492
602 784 979 81 105 238 306 348 448 110 143 226 293 257 335 94 128 165 212
179 212 8 0 22 -16 31 -36 17 -34 17 -36 -2 -50 -10 -8 -14 -14 -7 -14 6 0 9
-7 6 -15 -4 -8 -9 -13 -13 -11 -4 3 -18 -12 -31 -32 -65 -97 -109 -154 -762
-973 -129 -162 -349 -432 -489 -600 -364 -436 -331 -391 -327 -446 l3 -48 137
170 c75 94 183 226 239 295 178 219 481 608 899 1150 226 294 365 494 355 510
-3 6 -2 10 3 10 5 0 18 -24 30 -52 11 -29 24 -62 28 -72 6 -15 4 -18 -7 -12
-8 4 -6 1 5 -8 19 -16 13 -41 -10 -32 -8 3 -28 -15 -51 -47 -92 -129 -978
-1244 -1128 -1422 -166 -197 -449 -537 -478 -576 l-27 -36 0 -426 0 -427 3758
0 3757 1 -27 24 c-16 13 -28 28 -28 34 0 15 144 197 236 296 45 50 132 140
193 200 107 106 111 112 111 153 l0 42 -126 -142 c-222 -249 -411 -485 -426
-529 -5 -14 -88 38 -88 55 0 14 91 136 183 245 40 46 158 172 264 280 186 189
193 197 193 236 l-1 40 -31 -35 c-455 -509 -536 -605 -589 -697 -17 -29 -32
-53 -35 -53 -8 0 -84 50 -84 56 0 11 81 122 145 199 104 124 330 367 470 504
124 122 126 124 123 164 l-3 41 -206 -230 c-276 -306 -443 -504 -497 -589 -25
-38 -46 -71 -47 -73 -2 -2 -23 11 -49 28 l-46 31 74 97 c124 163 524 603 684
752 91 85 93 88 90 128 l-3 41 -206 -227 c-377 -415 -619 -707 -641 -774 -4
-10 -15 -7 -49 11 -24 13 -47 27 -50 30 -21 20 417 526 728 842 219 222 223
226 223 267 l0 42 -212 -231 c-360 -393 -696 -792 -736 -876 -9 -18 -19 -33
-23 -33 -3 0 -28 9 -53 21 l-47 21 17 26 c115 178 648 780 948 1071 106 102
107 104 104 146 l-3 43 -145 -160 c-80 -87 -181 -198 -224 -246 -130 -143
-504 -580 -579 -677 -38 -49 -83 -113 -99 -141 l-29 -52 -54 21 -53 22 15 25
c37 63 142 194 313 391 330 381 422 481 643 704 l217 220 -2 43 -3 42 -116
-127 c-64 -71 -174 -191 -244 -268 -280 -306 -708 -815 -785 -933 -47 -72 -57
-82 -77 -77 -37 9 -73 24 -73 31 0 12 93 144 163 231 280 348 716 832 996
1107 l142 139 -3 43 -3 44 -292 -318 c-295 -321 -376 -413 -636 -724 -190
-228 -283 -348 -342 -442 -53 -83 -53 -83 -127 -53 l-28 12 46 70 c53 79 63
92 264 335 397 483 689 804 1019 1124 l102 98 -3 45 -3 45 -362 -393 c-444
-484 -859 -981 -1013 -1215 l-66 -101 -40 14 c-21 7 -45 15 -52 18 -20 7 88
159 297 419 353 440 663 785 1055 1176 l186 185 0 50 -1 50 -26 -30 c-14 -16
-99 -109 -188 -205 -402 -434 -594 -651 -836 -940 -129 -155 -362 -459 -432
-565 -43 -66 -80 -122 -82 -124 -5 -4 -105 29 -105 36 0 13 189 268 344 463
156 197 332 407 570 679 80 92 513 542 692 720 63 62 65 66 62 108 l-3 45
-109 -119 c-60 -65 -169 -181 -241 -258 -166 -176 -416 -454 -509 -565 -39
-47 -119 -142 -178 -211 -224 -264 -620 -789 -640 -849 -2 -7 -15 -6 -38 3
-19 8 -43 17 -53 20 -16 6 -13 14 24 69 140 208 650 848 938 1177 46 53 181
195 300 316 119 121 282 289 364 373 l147 154 0 49 0 49 -37 -42 c-58 -66
-239 -262 -437 -473 -289 -308 -427 -467 -782 -910 -177 -221 -458 -596 -505
-676 -46 -76 -47 -77 -121 -46 l-28 12 94 133 c159 222 359 478 752 967 156
193 195 236 508 560 144 149 315 326 380 395 65 69 132 138 148 153 26 24 29
33 26 78 l-3 50 -99 -113 c-54 -62 -235 -259 -401 -438 -346 -372 -400 -434
-609 -695 -425 -532 -681 -874 -801 -1069 -9 -15 -14 -15 -63 1 l-53 19 84
119 c161 230 412 562 646 855 309 388 348 431 711 805 80 83 208 218 285 300
76 83 177 189 223 236 83 85 83 86 80 133 l-3 47 -247 -273 c-136 -150 -329
-361 -429 -468 -263 -283 -396 -439 -710 -840 -234 -298 -541 -723 -644 -893
-9 -16 -14 -16 -57 0 -27 10 -48 21 -48 25 0 24 326 478 592 825 409 531 397
517 862 1008 312 330 530 559 608 641 77 79 78 81 78 132 l0 52 -77 -87 c-143
-162 -356 -396 -599 -658 -367 -396 -469 -513 -628 -720 -179 -232 -557 -738
-621 -830 -77 -109 -223 -333 -228 -350 -3 -6 -12 -3 -23 7 -10 9 -32 21 -47
27 l-28 11 103 152 c103 152 296 415 683 933 214 286 315 399 905 1022 146
153 332 352 413 441 l148 161 -3 52 -3 51 -85 -103 c-112 -135 -386 -442 -620
-694 -540 -582 -588 -640 -970 -1170 -79 -110 -185 -254 -234 -320 -75 -100
-305 -436 -341 -499 -10 -17 -12 -17 -55 0 -25 9 -47 18 -49 20 -4 4 122 190
254 374 61 85 156 218 210 295 169 240 445 617 505 690 66 81 386 429 624 680
210 220 422 448 516 555 41 47 114 128 162 181 l88 96 0 54 -1 54 -22 -26
c-12 -14 -90 -106 -173 -205 -190 -225 -463 -530 -806 -901 -147 -159 -307
-337 -356 -396 -155 -186 -901 -1239 -1007 -1422 -9 -15 -15 -16 -53 -5 -27 9
-42 19 -42 30 0 22 312 485 548 815 64 88 176 245 249 348 182 255 145 213
1007 1135 60 65 232 255 382 424 l274 307 0 56 0 56 -77 -95 c-292 -356 -575
-678 -1004 -1142 -358 -386 -418 -456 -537 -624 -52 -74 -166 -234 -252 -355
-195 -274 -561 -819 -579 -862 -12 -30 -31 -45 -31 -25 0 11 -35 48 -56 60
-14 8 -5 26 63 123 43 63 153 224 243 359 90 135 213 315 275 400 61 85 159
223 218 306 59 83 139 189 179 235 77 89 498 546 658 714 134 140 265 285 490
540 107 121 243 275 303 343 l108 122 -3 55 -3 56 -107 -133 c-97 -122 -498
-595 -677 -798 -66 -76 -277 -305 -506 -550 -258 -276 -337 -373 -525 -645
-57 -82 -127 -183 -157 -223 -54 -73 -389 -575 -520 -778 l-72 -111 -53 10
c-29 5 -54 11 -56 12 -7 6 493 749 597 888 61 82 116 159 122 170 20 39 -47
-30 -134 -138 -96 -119 -486 -706 -593 -892 -17 -31 -22 -33 -71 -33 -28 0
-55 4 -58 10 -3 5 24 58 61 117 105 168 420 638 494 738 60 80 255 285 280
293 10 4 446 460 641 672 68 74 200 216 294 315 93 100 224 244 290 320 66 77
169 194 230 260 60 67 164 184 230 260 65 77 159 186 207 242 88 102 88 102
88 158 l0 55 -87 -107 c-144 -179 -268 -327 -458 -548 -99 -115 -227 -266
-285 -335 -115 -137 -163 -191 -349 -391 -69 -74 -235 -253 -370 -399 -135
-146 -346 -366 -468 -490 -123 -124 -238 -245 -256 -270 -62 -82 -394 -585
-466 -704 -38 -65 -76 -132 -82 -151 l-12 -33 -56 5 c-31 3 -61 8 -67 12 -14
7 70 143 319 518 227 343 268 395 446 578 175 179 779 817 861 910 30 33 127
139 216 235 89 96 195 214 235 261 41 47 144 164 230 260 85 96 233 266 329
379 95 113 206 242 247 286 l73 82 0 63 0 63 -52 -71 c-70 -92 -419 -515 -638
-772 -97 -113 -215 -253 -264 -311 -136 -162 -496 -556 -746 -815 -58 -60
-151 -159 -205 -220 -55 -60 -183 -198 -285 -305 -224 -235 -232 -246 -463
-596 -193 -293 -270 -418 -308 -496 -18 -37 -28 -48 -46 -48 -25 0 -93 25 -93
34 0 22 444 693 548 829 128 167 413 484 707 787 88 91 207 217 265 280 58 63
189 205 291 315 168 182 608 680 720 815 89 108 326 387 446 527 l123 143 0
62 c0 62 0 62 -17 38 -25 -37 -217 -276 -413 -515 -631 -771 -870 -1042 -1516
-1720 -283 -297 -569 -627 -690 -795 -86 -119 -361 -547 -425 -660 -29 -52
-54 -97 -56 -99 -2 -2 -14 1 -28 7 -21 10 -25 18 -25 57 0 27 9 63 21 87 44
87 320 514 428 663 106 147 397 480 691 790 622 656 936 1006 1444 1610 153
182 347 412 432 512 l154 182 0 62 0 61 -68 -88 c-130 -171 -763 -949 -986
-1214 -121 -144 -269 -312 -386 -440 -354 -388 -740 -803 -789 -850 -31 -30
-93 -98 -136 -150 -44 -52 -119 -140 -168 -195 -49 -55 -126 -150 -172 -211
-128 -170 -388 -575 -441 -686 -10 -21 -21 -38 -26 -38 -4 0 -8 21 -8 48 0 26
-7 59 -15 75 -13 26 -11 31 67 155 136 215 259 390 284 407 14 9 22 20 19 25
-3 5 10 24 30 41 20 18 33 34 30 37 -2 3 8 15 24 26 15 12 26 27 24 33 -5 15
14 36 42 47 12 4 15 10 8 14 -7 4 23 42 78 97 49 50 89 96 89 103 0 6 5 12 10
12 6 0 10 7 10 15 0 8 9 20 20 27 11 7 20 17 20 23 0 6 8 15 19 22 10 6 27 26
38 45 l19 33 -49 0 c-33 0 -52 5 -55 13 -2 7 2 13 9 11 27 -3 40 1 34 11 -3 6
1 7 9 4 9 -3 16 -1 16 5 0 19 29 12 40 -9 14 -26 30 -26 30 1 0 11 5 17 10 14
6 -3 10 -2 10 4 0 5 9 13 21 16 12 4 18 12 15 21 -3 9 4 16 22 20 15 3 37 10
49 16 11 6 27 7 34 3 8 -5 10 -4 5 3 -4 7 -3 12 2 12 12 0 11 34 -2 42 -7 5
-7 8 3 8 8 0 11 6 7 15 -4 10 3 20 19 27 17 7 22 14 14 19 -8 5 -5 10 9 18 43
23 653 684 977 1060 178 206 383 450 816 969 l320 383 -3 56 -3 55 -153 -193
c-84 -107 -196 -248 -249 -314 -641 -795 -620 -769 -955 -1158 -331 -383 -741
-823 -788 -846 -27 -13 -31 -12 -53 9 -23 22 -24 26 -10 46 8 13 27 24 41 26
24 3 27 8 27 38 0 31 4 36 33 46 18 5 30 13 27 15 -3 3 30 41 72 85 42 43 133
142 201 219 69 77 140 151 159 165 29 20 32 25 17 30 -15 6 -15 7 -2 12 9 4
94 96 189 205 95 109 218 250 274 313 106 121 222 259 633 754 141 170 321
386 399 480 l143 171 -1 60 0 60 -22 -30 c-43 -58 -983 -1231 -1078 -1346 -93
-111 -202 -238 -377 -441 -90 -104 -164 -168 -194 -168 -10 0 -18 -4 -18 -10
0 -5 -11 -10 -25 -10 -34 0 -31 12 8 30 23 11 27 15 15 18 -35 7 -24 24 158
227 201 225 440 504 608 710 104 127 230 280 281 340 51 61 190 229 310 375
120 146 244 295 277 332 l59 67 -3 62 -3 61 -35 -48 c-19 -27 -152 -195 -295
-374 -144 -179 -373 -467 -510 -640 -263 -333 -409 -511 -643 -780 -157 -180
-215 -234 -243 -225 -10 4 -35 2 -55 -4 -23 -6 -43 -7 -53 -1 -14 8 -14 9 -1
10 20 1 111 87 197 185 316 364 414 481 588 695 110 135 274 335 365 445 91
110 237 288 325 395 88 107 206 250 262 317 l103 123 0 61 0 61 -69 -90 c-38
-50 -240 -303 -448 -564 -208 -260 -434 -545 -502 -633 -173 -223 -307 -386
-516 -630 -99 -115 -193 -226 -209 -245 -16 -19 -44 -45 -63 -58 -29 -20 -37
-21 -51 -11 -9 8 -18 14 -20 15 -7 4 128 190 177 244 49 54 243 290 443 538
285 353 322 398 403 492 44 52 161 194 260 315 250 307 511 622 557 672 35 40
38 47 38 104 l0 62 -106 -134 c-58 -74 -154 -195 -214 -269 -60 -74 -274 -342
-475 -595 -885 -1113 -812 -1025 -858 -1025 -27 1 -29 2 -14 11 9 6 15 14 12
20 -4 5 -1 9 4 9 6 0 11 7 11 15 0 8 20 29 44 47 25 18 49 43 55 56 13 27 14
35 4 29 -5 -3 -16 -1 -27 2 -15 6 4 34 125 182 79 97 173 211 209 255 35 43
139 169 229 279 218 264 362 439 501 610 63 77 201 244 307 372 l193 232 0 62
0 61 -44 -58 c-23 -33 -112 -144 -196 -249 -84 -104 -200 -250 -259 -324 -257
-326 -844 -1061 -969 -1214 -75 -93 -148 -182 -160 -198 -13 -16 -29 -29 -35
-29 -6 0 2 14 18 30 27 29 28 30 7 30 -15 0 -20 4 -15 16 3 9 0 20 -8 25 -11
7 -4 18 31 49 25 23 35 36 23 30 -23 -11 -34 2 -13 15 6 4 56 63 112 133 57
70 188 231 293 358 104 126 267 324 360 439 591 723 772 944 817 991 38 40 39
43 36 103 l-3 62 -75 -98 c-41 -54 -124 -159 -185 -234 -60 -74 -191 -238
-290 -364 -99 -125 -360 -454 -580 -730 -220 -275 -416 -522 -435 -548 -39
-52 -53 -55 -119 -28 -43 17 -44 40 -1 26 11 -4 20 -2 20 3 0 6 -5 12 -12 14
-7 3 22 44 68 96 45 50 191 225 324 389 134 164 274 334 310 378 37 44 272
331 523 638 l457 558 0 61 0 60 -71 -93 c-40 -52 -149 -191 -244 -309 -94
-118 -239 -300 -321 -404 -681 -862 -1098 -1376 -1115 -1376 -12 0 -11 33 1
106 18 103 18 102 52 109 30 7 118 52 118 61 0 2 -12 -1 -26 -6 -14 -6 -28
-10 -31 -10 -8 0 68 102 112 150 43 47 197 234 345 420 94 117 593 728 952
1163 l229 279 -3 60 -3 60 -70 -93 c-38 -52 -151 -195 -250 -319 -99 -124
-275 -344 -390 -490 -115 -146 -268 -339 -340 -430 -73 -91 -194 -244 -270
-340 -76 -96 -162 -203 -191 -236 -52 -60 -55 -62 -90 -54 -19 5 -37 10 -39
12 -9 9 71 119 214 293 87 105 224 273 306 375 82 102 275 338 430 525 154
187 345 421 425 520 79 99 172 214 207 255 62 75 63 75 63 138 l0 63 -252
-323 c-138 -178 -333 -424 -433 -548 -100 -124 -257 -322 -350 -440 -274 -348
-591 -743 -618 -768 l-24 -23 -13 46 c-9 33 -10 52 -2 68 6 12 69 92 141 177
72 85 231 279 353 430 122 151 294 363 383 470 233 282 267 325 519 640 126
157 244 301 262 320 32 34 34 40 34 104 l0 69 -81 -108 c-104 -139 -259 -336
-639 -815 -168 -212 -376 -475 -462 -585 -140 -180 -160 -201 -197 -212 -54
-17 -70 -16 -67 3 3 22 235 314 631 793 67 80 196 241 289 356 92 116 249 310
347 433 l180 223 -3 60 -3 59 -55 -72 c-171 -225 -504 -651 -776 -993 -170
-215 -357 -451 -414 -525 -197 -255 -239 -305 -287 -342 -26 -20 -61 -50 -77
-67 -35 -36 -42 -38 -49 -11 -3 12 8 38 32 72 46 66 376 479 585 733 139 169
514 634 909 1130 l136 170 1 63 c0 34 -2 62 -4 62 -3 0 -26 -30 -53 -67 -87
-124 -567 -741 -938 -1208 -136 -170 -304 -384 -373 -474 -205 -266 -325 -414
-349 -429 -20 -13 -21 -12 -17 10 5 20 4 21 -8 7 -15 -18 -78 -24 -78 -7 0 6
24 36 54 67 30 31 127 148 216 261 157 198 237 298 542 670 131 160 519 644
811 1012 64 82 117 150 117 153 0 3 -22 5 -49 5 -47 0 -49 -1 -83 -52 -56 -84
-402 -530 -999 -1284 -118 -149 -287 -365 -376 -480 -144 -186 -265 -331 -248
-296 3 6 2 12 -4 12 -5 0 -17 14 -25 31 -16 31 -16 32 32 88 27 31 120 146
207 256 88 110 236 295 330 410 281 345 635 785 905 1125 67 85 129 163 138
173 14 16 12 17 -35 17 l-51 0 -72 -97 c-121 -162 -360 -470 -619 -798 -273
-345 -473 -601 -659 -840 -163 -209 -201 -255 -215 -255 -7 0 -24 10 -39 23
l-27 22 272 340 c150 187 337 419 415 515 122 150 441 547 779 970 l92 115
-47 3 c-40 3 -49 0 -62 -19 -26 -40 -416 -545 -594 -769 -209 -264 -520 -661
-726 -928 -147 -190 -156 -200 -173 -184 -10 9 -16 24 -14 34 3 10 1 21 -4 24
-6 3 -3 16 6 31 31 47 348 448 605 763 73 91 208 257 299 370 375 467 457 568
504 623 l49 57 -54 0 c-49 0 -55 -3 -74 -33 -12 -17 -77 -104 -145 -192 -316
-406 -415 -533 -555 -710 -240 -305 -391 -498 -528 -680 -71 -93 -132 -174
-137 -179 -5 -5 -23 2 -43 18 l-36 27 97 127 c130 171 840 1055 1221 1521 l83
101 -49 0 c-47 0 -50 -2 -83 -47 -18 -27 -108 -142 -199 -258 -91 -115 -260
-331 -376 -480 -275 -353 -581 -743 -609 -777 -22 -26 -39 -32 -80 -29 -19 2
-19 2 -2 15 21 16 22 26 2 26 -19 0 41 81 274 370 91 113 264 329 386 480 121
151 293 362 380 469 213 258 197 231 139 231 l-49 -1 -122 -162 c-134 -177
-442 -572 -727 -932 -100 -126 -213 -273 -251 -325 -38 -52 -72 -99 -76 -104
-12 -13 -71 14 -65 30 3 7 1 16 -4 19 -11 7 942 1202 1122 1408 l60 67 -54 -1
-53 -1 -86 -116 c-48 -64 -189 -247 -313 -407 -243 -310 -423 -541 -606 -777
-121 -155 -129 -161 -159 -105 -13 24 -8 32 95 164 174 223 784 984 906 1130
37 45 73 85 78 88 23 14 7 25 -37 24 -48 0 -48 0 -100 -73 -49 -69 -729 -949
-797 -1031 l-33 -40 -36 20 c-36 19 -36 19 -19 45 9 14 43 57 74 95 31 39 123
153 203 255 203 256 414 518 507 627 43 51 78 95 78 98 0 3 -20 5 -45 5 -42 0
-46 -2 -87 -57 -23 -32 -148 -195 -278 -363 -130 -168 -290 -377 -356 -465
-67 -88 -128 -166 -136 -173 -17 -14 -94 -7 -104 9 -3 5 20 37 50 71 31 34 93
109 138 167 208 267 574 720 626 774 l36 37 -51 0 c-48 0 -54 -3 -79 -37 -73
-100 -187 -249 -270 -353 -50 -63 -173 -224 -273 -357 -100 -133 -185 -244
-190 -247 -15 -9 -64 51 -55 67 21 34 518 659 641 805 l104 123 -50 -3 -49 -3
-141 -185 c-78 -102 -232 -305 -343 -453 l-203 -267 -33 34 -34 34 60 73 c33
41 163 202 288 359 125 157 252 313 282 348 l54 62 -48 -1 -49 0 -250 -331
c-137 -182 -278 -367 -312 -410 l-61 -79 -33 29 -32 29 148 189 c82 104 220
276 307 382 l157 192 -47 -1 -47 0 -102 -137 c-55 -75 -178 -240 -272 -365
l-172 -228 -32 22 c-18 13 -34 24 -36 25 -8 7 358 469 527 667 14 16 12 17
-31 17 l-45 0 -237 -315 c-130 -173 -244 -321 -253 -328 -10 -6 -17 -17 -17
-23 0 -23 -181 -252 -210 -264 -16 -8 -34 -16 -39 -18 -5 -3 -6 5 -3 17 4 17
2 21 -9 17 -39 -15 10 67 124 206 31 39 70 89 86 112 51 72 332 421 405 505
39 44 71 82 71 85 0 3 -20 6 -44 6 l-43 0 -219 -292 c-120 -161 -227 -300
-236 -310 -10 -10 -18 -21 -18 -24 0 -3 -36 -53 -80 -110 -44 -58 -80 -109
-80 -114 0 -6 -7 -10 -15 -10 -9 0 -24 -14 -33 -30 -13 -23 -23 -30 -42 -28
-53 5 -59 39 -16 88 12 14 49 61 82 105 32 43 167 214 299 379 132 164 248
310 258 323 l19 23 -44 0 -43 0 -293 -394 c-161 -217 -300 -400 -308 -407 -17
-14 -17 -10 -4 85 9 58 17 79 52 125 83 110 435 546 451 560 27 22 20 31 -26
31 -41 0 -45 -2 -87 -62 -87 -125 -372 -504 -395 -524 -12 -12 -29 -32 -36
-45 -35 -67 -102 -161 -107 -153 -4 5 -13 9 -19 10 -7 1 -22 2 -33 3 -11 0
-23 7 -26 15 -5 14 337 463 498 653 43 51 78 95 78 98 0 3 -19 5 -42 5 -42 0
-44 -2 -100 -81 -172 -245 -465 -628 -478 -626 -8 1 -21 -2 -27 -6 -8 -5 -26
-1 -43 9 l-29 18 24 25 c14 15 127 154 251 311 124 157 240 300 257 318 l31
32 -46 0 c-46 0 -47 -1 -94 -67 -128 -182 -452 -603 -462 -602 -4 0 -17 13
-30 29 l-23 30 82 107 c69 90 150 192 377 474 l23 29 -43 0 c-43 0 -45 -1 -96
-74 -149 -215 -374 -507 -398 -516 -19 -7 -31 -6 -49 6 -29 19 -29 19 -11 41
8 10 72 92 143 183 70 91 163 208 206 260 l79 95 -43 3 c-29 2 -45 -1 -50 -11
-12 -20 -284 -392 -333 -454 -48 -60 -84 -78 -124 -61 -15 7 -29 13 -31 15 -3
2 9 18 26 36 16 17 100 120 186 227 86 108 165 204 176 214 30 28 26 36 -18
36 -37 0 -42 -4 -87 -67 -71 -100 -227 -309 -283 -379 l-49 -62 -48 9 c-45 9
-70 19 -46 19 7 0 12 6 12 14 0 7 7 20 17 27 9 8 79 93 156 189 77 96 156 192
175 213 l36 37 -46 0 -46 0 -118 -165 c-121 -170 -193 -260 -225 -283 -15 -11
-23 -10 -44 4 -14 9 -25 20 -25 25 0 9 259 340 303 387 l31 32 -45 0 -44 0
-138 -195 c-77 -107 -143 -195 -148 -195 -6 0 -23 7 -40 15 l-29 16 60 89 c33
49 94 130 136 180 l75 91 -42 -3 c-42 -3 -44 -5 -122 -113 -43 -60 -84 -120
-89 -132 -6 -12 -19 -23 -29 -26 -14 -4 -17 -12 -14 -37 4 -30 2 -31 -23 -25
-42 10 -106 51 -89 58 7 3 64 66 125 141 l112 136 -45 0 c-25 0 -45 -4 -45 -8
0 -13 -110 -165 -158 -217 -43 -48 -43 -48 -82 -36 -35 10 -38 13 -25 29 7 9
52 65 99 125 l86 107 -37 0 c-37 -1 -40 -4 -143 -147 -58 -81 -132 -176 -166
-212 l-61 -65 -32 23 c-21 15 -29 27 -23 34 5 7 69 86 142 177 73 91 137 171
143 178 7 9 1 12 -26 12 -35 0 -40 -5 -168 -177 -73 -98 -140 -184 -148 -190
-15 -12 -68 -8 -83 6 -8 7 138 204 224 304 l50 57 -46 0 c-25 0 -46 -4 -46 -9
0 -5 -43 -69 -96 -142 -53 -74 -99 -140 -101 -146 -3 -7 -14 -13 -24 -13 -10
0 -19 -6 -19 -12 0 -7 -25 -41 -56 -76 -49 -55 -60 -63 -88 -60 -44 4 -40 25
20 100 29 35 100 124 159 198 59 74 112 141 117 148 8 9 1 12 -28 11 -39 0
-40 -1 -154 -160 -63 -88 -127 -171 -142 -184 -15 -12 -24 -26 -21 -29 4 -3 1
-6 -6 -6 -7 0 -10 -4 -7 -9 3 -4 -4 -17 -15 -27 -19 -17 -22 -18 -50 -2 l-29
17 21 -29 c12 -15 20 -33 18 -38 -2 -6 -43 -60 -92 -121 -82 -105 -89 -111
-110 -100 -22 12 -22 12 -3 -10 19 -21 19 -22 2 -39 -16 -16 -19 -16 -42 11
-13 15 -24 33 -24 40 0 7 48 73 106 147 58 74 110 142 115 151 4 9 74 98 154
198 80 100 145 184 145 186 0 3 -16 5 -35 5 -31 0 -40 -6 -68 -46 -110 -160
-424 -568 -514 -671 -107 -122 -108 -123 -151 -123 -24 0 -42 4 -40 9 2 6 43
61 93 123 49 62 179 228 289 368 110 140 215 274 234 298 l34 42 -40 0 c-39 0
-41 -2 -113 -102 -87 -122 -323 -432 -464 -609 -55 -69 -181 -229 -280 -354
-99 -125 -188 -237 -197 -249 -16 -21 -17 -21 -52 -2 -27 14 -33 22 -26 35 4
9 56 77 115 151 59 74 216 275 350 445 134 171 298 380 365 465 67 85 136 170
153 188 l31 32 -45 0 -44 -1 -84 -115z m1005 -179 c10 -8 13 -15 7 -15 -7 0
-25 -18 -39 -40 -24 -36 -31 -40 -68 -40 -22 0 -48 4 -56 10 -12 7 -10 11 11
18 14 6 37 26 53 46 29 39 59 46 92 21z m20 -34 c-3 -5 11 -12 32 -16 41 -7
72 -30 72 -52 0 -11 -8 -13 -27 -9 -16 3 -45 8 -65 12 -34 6 -37 8 -31 32 4
17 2 23 -6 18 -12 -8 -16 6 -4 17 10 10 35 8 29 -2z m-429 -91 c11 0 -34 -49
-45 -50 -7 0 -12 -6 -11 -12 3 -29 -2 -38 -25 -38 -14 0 -28 -5 -31 -10 -4 -6
-25 -20 -48 -31 -23 -12 -61 -37 -84 -56 -54 -43 -56 -25 -5 47 31 45 46 56
95 73 59 21 74 37 35 37 -20 0 -20 2 12 35 32 33 34 34 68 20 19 -8 36 -15 39
-15z m633 14 c46 -19 52 -34 13 -34 -26 0 -63 25 -63 42 0 11 3 10 50 -8z m90
-59 c13 -16 3 -20 -24 -9 -9 3 -13 10 -10 15 8 13 20 11 34 -6z m-260 -5 c21
-13 7 -22 -45 -27 -35 -4 -45 -2 -45 9 0 8 3 18 7 21 9 10 66 8 83 -3z m-110
-19 c0 -24 -26 -35 -34 -15 -10 26 -7 34 14 34 13 0 20 -7 20 -19z m-646 -53
c-19 -27 -43 -78 -53 -113 -29 -94 -49 -128 -69 -120 -9 3 -30 9 -45 12 -57
12 -50 28 80 189 61 77 76 91 97 87 l23 -5 -33 -50z m586 58 c0 -2 3 -11 6
-20 8 -21 -33 -21 -59 -2 -18 14 -18 14 0 19 25 6 53 8 53 3z m385 -26 c13 -6
15 -9 5 -9 -8 0 -22 4 -30 9 -18 12 -2 12 25 0z m-798 -126 c8 -21 -22 -77
-68 -126 -32 -35 -41 -39 -75 -36 -31 2 -40 7 -42 25 -4 27 48 87 107 125 51
32 69 35 78 12z m1373 -9 c18 -22 7 -28 -24 -14 -19 9 -23 15 -14 21 18 11 24
10 38 -7z m-1130 -45 c0 -14 -70 -58 -102 -64 -29 -5 -33 0 -22 28 3 9 11 13
17 9 6 -4 8 0 4 11 -4 10 -3 15 3 11 6 -3 10 -1 10 4 0 6 20 11 45 11 25 0 45
-4 45 -10z m-746 -35 c9 -13 16 -28 16 -34 0 -5 -23 -33 -51 -62 -28 -30 -59
-70 -69 -89 -10 -19 -28 -44 -40 -55 -28 -25 -68 -81 -51 -70 9 5 12 3 9 -6
-4 -15 -115 -56 -124 -46 -11 11 8 49 66 127 51 68 65 80 97 86 36 8 37 8 10
13 l-27 6 67 77 c38 42 71 77 74 77 4 1 14 -10 23 -24z m2860 4 c14 -11 26
-25 26 -30 0 -17 -123 -173 -170 -216 -51 -47 -60 -50 -114 -39 l-39 7 37 25
c20 14 48 44 63 67 34 55 154 207 163 207 4 0 19 -9 34 -21z m-557 -61 c-11
-60 -23 -75 -29 -35 -4 20 29 104 37 95 1 -1 -2 -29 -8 -60z m-2199 -15 c-15
-18 -21 -9 -13 18 6 16 9 18 16 8 4 -8 3 -19 -3 -26z m418 2 c-3 -8 -12 -15
-21 -15 -14 0 -13 3 2 26 17 26 30 18 19 -11z m2428 -16 c14 -11 26 -24 26
-29 0 -5 -15 -24 -33 -43 -19 -18 -57 -67 -85 -108 -28 -40 -61 -85 -72 -98
l-21 -24 -15 21 c-8 12 -22 22 -30 22 -23 0 63 118 99 137 17 8 25 18 19 22
-9 6 64 119 79 120 4 1 18 -8 33 -20z m-3185 -55 c2 -1 -17 -29 -41 -61 -25
-32 -60 -86 -78 -121 -18 -35 -42 -68 -54 -74 -32 -17 -48 -35 -145 -165 -51
-68 -98 -123 -104 -123 -7 0 -24 10 -39 23 l-28 22 210 262 210 262 33 -11
c17 -6 34 -12 36 -14z m3292 -30 l28 -26 -80 -99 c-84 -103 -118 -133 -162
-144 -31 -8 -37 8 -9 25 13 8 13 10 2 8 -9 -2 -18 0 -20 3 -3 3 29 50 70 104
137 178 127 171 171 129z m-3071 -63 c0 -4 -25 -27 -55 -49 -30 -23 -55 -39
-55 -36 0 11 23 50 43 72 20 21 67 31 67 13z m3173 -29 l27 -28 -22 -12 c-23
-12 -101 -31 -126 -32 -16 0 68 99 84 100 5 0 22 -13 37 -28z m-3163 -112 c0
-5 -9 -10 -20 -10 -11 0 -20 5 -20 10 0 6 9 10 20 10 11 0 20 -4 20 -10z m59
-11 c-22 -13 -31 -11 -17 5 7 8 17 12 22 9 4 -3 2 -9 -5 -14z m3142 -13 c2
-39 -2 -51 -31 -80 l-28 -28 -31 23 c-21 15 -28 26 -21 34 7 8 2 10 -18 8 -15
-2 -45 0 -67 4 l-40 9 26 17 c30 20 152 45 187 39 14 -3 22 -12 23 -26z
m-3411 9 c0 -18 -57 -115 -67 -115 -23 0 -97 -41 -115 -64 -29 -34 -69 -116
-63 -126 15 -23 -109 -43 -142 -22 -9 5 15 42 78 120 85 105 141 160 171 166
7 2 20 6 28 9 60 26 110 40 110 32z m118 -40 c1 -19 -4 -26 -23 -31 -14 -3
-32 -3 -41 0 -15 6 -14 9 6 31 30 32 55 32 58 0z m2738 -1 c17 -14 17 -15 1
-10 -10 3 -25 6 -33 6 -8 0 -14 5 -14 10 0 15 24 12 46 -6z m724 -2 l22 -18
-61 -81 c-39 -52 -67 -80 -78 -79 -9 2 -29 15 -44 31 l-29 28 63 68 c66 72 90
81 127 51z m-377 -66 c11 -11 17 -12 26 -3 8 8 11 8 11 0 0 -6 8 -9 19 -6 19
5 91 -57 91 -77 0 -13 -130 -13 -150 0 -8 5 -10 10 -4 10 22 0 10 31 -15 37
-14 3 -37 13 -50 22 -22 14 -22 15 -5 22 31 12 62 10 77 -5z m-3220 -123 c-7
-2 -21 -2 -30 0 -10 3 -4 5 12 5 17 0 24 -2 18 -5z m-121 -28 c-5 -29 -6 -30
-51 -40 l-34 -7 19 26 c11 14 30 30 44 35 14 5 26 10 26 10 1 1 -1 -10 -4 -24z
m3616 0 c-3 -3 -9 2 -12 12 -6 14 -5 15 5 6 7 -7 10 -15 7 -18z m-3810 -131
c9 -3 -4 -24 -37 -60 -28 -31 -51 -60 -51 -65 0 -4 -14 -16 -31 -25 -36 -18
-79 -7 -79 22 0 16 40 73 88 125 25 28 23 28 110 3z m4072 -131 c0 -5 -11 -21
-25 -38 -24 -29 -25 -30 -40 -10 -8 10 -14 24 -12 29 5 16 77 33 77 19z
m-4258 -33 c27 -25 17 -37 -41 -46 l-44 -7 27 36 c16 21 30 37 33 37 2 0 14
-9 25 -20z m8 -65 c0 -2 -18 -23 -40 -47 -22 -24 -40 -47 -40 -53 0 -5 -10
-23 -23 -38 -19 -25 -28 -28 -69 -25 l-47 3 54 70 c30 39 64 76 77 82 22 12
88 18 88 8z m4395 -252 c16 -11 17 -13 3 -13 -9 0 -19 4 -23 10 -3 5 -12 7
-20 3 -9 -3 -15 1 -15 11 0 17 20 13 55 -11z m22 -49 c-3 -3 -12 -4 -19 -1 -8
3 -5 6 6 6 11 1 17 -2 13 -5z m561 -154 c-12 -16 -25 -30 -30 -30 -4 0 -8 -7
-8 -15 0 -21 -14 -19 -36 6 -18 20 -18 21 1 32 15 9 65 29 93 36 1 1 -7 -12
-20 -29z m-175 -212 c-58 -73 -117 -145 -131 -160 l-25 -28 -31 24 c-17 13
-41 26 -53 30 -19 6 -5 23 125 155 l147 149 37 -19 37 -19 -106 -132z m-128
142 c-3 -5 -11 -10 -16 -10 -6 0 -7 5 -4 10 3 6 11 10 16 10 6 0 7 -4 4 -10z
m-4904 -192 c-10 -24 -20 -35 -20 -25 -1 24 30 95 36 80 2 -6 -5 -31 -16 -55z
m4843 54 c6 -10 -120 -122 -137 -122 -15 0 -47 31 -47 46 0 7 -6 15 -12 17
-27 11 14 24 60 20 34 -3 43 -2 32 6 -12 8 -10 11 10 19 55 21 87 25 94 14z
m0 -181 c16 -17 18 -25 10 -39 -18 -28 -37 -24 -84 18 -33 31 -41 43 -31 49
19 12 81 -4 105 -28z m-94 -37 c17 -15 37 -38 45 -53 16 -31 30 -101 21 -101
-31 0 -116 78 -116 105 0 5 -7 17 -16 27 -14 14 -14 20 -4 33 18 21 34 19 70
-11z m-58 -113 c42 -67 38 -73 -33 -49 -72 24 -83 42 -45 75 17 14 24 28 20
36 -21 34 33 -24 58 -62z m182 47 c12 -46 4 -108 -13 -108 -25 0 -42 114 -18
123 21 9 25 8 31 -15z m-62 -105 c18 -16 25 -63 10 -63 -7 0 -42 63 -42 75 0
10 14 5 32 -12z m-81 -43 c5 0 16 -17 24 -37 18 -41 10 -53 -37 -53 -34 0 -95
49 -76 61 7 5 9 9 3 10 -5 0 4 7 20 14 17 8 36 12 43 10 8 -3 18 -5 23 -5z
m258 -19 c11 -7 8 -17 -17 -52 -47 -69 -94 -110 -112 -99 -13 8 -11 17 13 60
15 27 27 56 27 63 0 32 55 49 89 28z m-119 -70 c-12 -23 -30 -28 -30 -9 0 16
34 52 38 39 2 -5 -2 -19 -8 -30z m-204 -25 c3 -9 13 -12 22 -9 13 5 14 3 6 -6
-16 -17 -48 -10 -52 12 -4 21 16 23 24 3z m114 -6 c0 -5 -4 -10 -10 -10 -5 0
-10 5 -10 10 0 6 5 10 10 10 6 0 10 -4 10 -10z m-4935 -77 c-2 -32 -8 -70 -14
-86 -24 -62 -286 -387 -317 -395 -7 -2 -20 8 -29 22 -21 32 -24 28 152 254
192 248 203 262 207 262 1 0 2 -26 1 -57z m4926 -106 c10 -36 3 -34 -17 4 -11
23 -12 30 -3 27 7 -2 16 -16 20 -31z m-23 -37 c9 -24 8 -30 -2 -30 -15 0 -26
21 -26 51 0 27 16 16 28 -21z m-4877 -55 c1 -30 -4 -62 -13 -80 -28 -52 -177
-235 -192 -235 -4 0 -4 5 -1 10 3 6 1 10 -4 10 -14 0 -14 -31 -1 -64 12 -33 5
-33 -42 1 -24 16 -37 32 -34 40 3 8 1 11 -4 8 -23 -14 -7 18 38 74 26 33 89
115 141 181 52 66 98 117 102 113 4 -5 9 -30 10 -58z m5057 -96 c23 -7 42 -14
42 -17 0 -7 -57 -82 -114 -149 -29 -34 -76 -67 -61 -43 4 7 3 15 -3 19 -6 3
-13 23 -17 44 -6 33 -5 37 13 37 12 0 24 5 27 10 3 6 -2 10 -13 10 -27 0 -31
8 -21 42 8 30 38 60 51 52 4 -2 10 0 13 6 4 6 14 9 23 6 10 -3 36 -10 60 -17z
m-5043 -106 c-4 -33 -12 -56 -21 -60 -8 -3 -14 -9 -14 -15 0 -5 5 -6 10 -3 13
8 13 -8 -1 -39 -6 -13 -28 -32 -49 -41 -35 -16 -40 -16 -69 -1 -17 9 -31 20
-31 24 0 4 39 57 87 117 94 117 101 118 88 18z m3339 -184 c95 -16 146 -47
176 -105 22 -43 25 -60 24 -154 -1 -129 -28 -231 -73 -274 -67 -64 -260 -99
-521 -94 -168 3 -177 4 -233 31 -61 31 -110 88 -177 212 -18 33 -44 72 -58 87
-29 31 -32 80 -8 127 40 76 186 140 395 170 83 13 405 13 475 0z m-1644 -64
c255 -17 377 -100 351 -239 -14 -75 -111 -265 -155 -304 -54 -48 -148 -72
-305 -80 -281 -15 -443 13 -497 83 -34 45 -84 202 -91 286 -16 188 58 243 342
258 138 8 186 7 355 -4z m-1722 -122 c-8 -10 -17 -25 -21 -34 -7 -21 -72 -51
-99 -47 -17 2 -13 7 23 25 24 12 58 35 74 51 32 30 48 33 23 5z m5025 -67 c6
-14 -1 -26 -14 -26 -4 0 -7 9 -6 20 1 23 12 26 20 6z m-4929 -133 c8 -21 -21
-123 -35 -123 -10 0 -5 77 7 123 7 22 20 22 28 0z m4911 -453 c-3 -5 -12 -10
-20 -10 -8 0 -17 5 -20 10 -4 6 5 10 20 10 15 0 24 -4 20 -10z m-39 -34 l32
-1 -52 -59 c-28 -33 -86 -97 -130 -143 -80 -85 -107 -98 -146 -73 -13 8 -12
10 3 10 19 0 22 22 7 51 -7 12 -7 19 -1 19 6 0 8 6 5 14 -7 18 28 30 59 20 21
-6 21 -6 -3 15 -19 17 -20 20 -5 13 11 -5 29 -6 40 -1 11 4 16 8 12 8 -4 1 -4
9 1 18 7 12 5 21 -6 32 -14 15 -11 17 39 22 30 3 43 7 29 8 -29 2 -67 21 -72
36 -4 13 47 21 107 16 28 -2 64 -4 81 -5z m-265 -345 c-11 -15 -32 -36 -46
-45 -25 -16 -28 -16 -53 0 -23 15 -24 19 -9 22 9 2 15 7 12 12 -3 5 11 12 32
16 21 4 45 10 53 15 28 16 31 9 11 -20z m-171 -61 c6 10 16 8 44 -9 41 -26 42
-29 19 -47 -19 -13 -43 -2 -43 21 0 7 -9 15 -20 18 -12 3 -20 13 -19 24 1 17
2 17 6 -1 4 -14 7 -16 13 -6z m-4024 -215 c20 -30 15 -57 -12 -69 -12 -5 -30
-22 -40 -38 -10 -15 -25 -28 -33 -28 -10 0 -11 -3 -2 -14 10 -11 9 -16 -2 -23
-18 -10 -114 -129 -417 -518 -301 -386 -638 -806 -854 -1063 -94 -112 -180
-217 -191 -233 -18 -26 -70 -55 -133 -74 -21 -6 -22 -5 -13 12 5 10 45 61 88
115 501 620 743 926 1018 1288 502 661 509 670 546 670 19 0 34 -8 45 -25z
m65 -47 c1 -13 2 -19 15 -85 5 -27 4 -31 -12 -27 -37 10 -57 33 -57 65 0 40
51 84 54 47z m-75 -155 c17 -17 17 -18 -9 -21 -29 -4 -33 -12 -17 -28 7 -7 8
-19 0 -38 -15 -41 -367 -493 -1039 -1335 l-251 -315 -62 -23 c-35 -12 -66 -22
-71 -20 -10 3 7 26 263 347 377 474 446 562 719 925 416 552 419 555 467 508z
m24 -154 c8 -11 20 -28 26 -37 10 -13 1 -29 -47 -87 -33 -38 -146 -182 -251
-320 -106 -137 -328 -422 -495 -632 -166 -211 -317 -402 -334 -425 -26 -37
-38 -45 -86 -56 -31 -7 -58 -10 -61 -7 -7 7 30 58 170 235 205 260 360 460
475 611 60 79 149 196 197 259 49 63 143 187 209 275 169 225 169 225 197 184z
m142 -115 c12 -8 -30 -54 -49 -54 -8 0 -11 -4 -8 -10 3 -5 2 -10 -4 -10 -5 0
-17 -22 -26 -50 -11 -33 -22 -50 -33 -51 -10 0 -53 -48 -97 -107 -44 -59 -206
-269 -360 -467 -155 -198 -312 -400 -351 -450 -38 -49 -91 -120 -118 -157
l-48 -68 -60 0 -59 0 23 33 c12 17 79 104 148 192 70 88 290 376 489 640 200
264 384 502 410 528 44 47 48 48 89 43 24 -3 48 -9 54 -12z m3464 -25 c10 0
14 -3 7 -5 -7 -3 -9 -12 -6 -20 3 -8 0 -14 -7 -14 -6 0 -9 -4 -6 -8 3 -5 -7
-21 -23 -36 -25 -24 -30 -25 -62 -15 -50 17 -64 30 -44 41 8 5 13 13 10 19 -4
5 4 9 17 9 32 0 52 15 43 31 -6 9 -3 11 8 6 12 -4 17 -1 17 11 1 16 1 16 14 0
7 -10 22 -18 32 -19z m-3509 -145 c-3 -3 -12 -4 -19 -1 -8 3 -5 6 6 6 11 1 17
-2 13 -5z m-2 -20 c14 -6 14 -8 -3 -20 -14 -9 -20 -26 -20 -55 -1 -27 -8 -49
-20 -63 -11 -11 -87 -109 -169 -216 -82 -107 -232 -303 -334 -435 -102 -132
-225 -293 -274 -359 l-88 -118 -40 5 c-22 3 -43 9 -48 14 -4 4 16 40 44 78 63
85 803 1061 855 1128 36 46 58 56 97 41z m21 -155 c-3 -18 -1 -38 5 -45 7 -9
6 -20 -7 -41 -44 -70 -323 -441 -361 -480 -24 -23 -43 -47 -43 -52 0 -5 -18
-31 -40 -56 -23 -26 -52 -70 -66 -97 -14 -28 -35 -60 -46 -72 -11 -11 -36 -45
-55 -73 -18 -29 -41 -53 -49 -53 -26 0 -84 -65 -84 -94 0 -30 -22 -44 -85 -53
l-46 -6 13 27 c26 59 781 1059 828 1100 40 33 44 33 36 -5z m166 -5 c10 -10
-33 -87 -120 -214 -71 -105 -251 -358 -271 -382 -4 -4 -30 0 -59 8 -46 14 -51
17 -40 32 384 514 399 532 435 532 7 0 16 7 19 15 6 15 26 20 36 9z m83 -62
c-1 -16 -5 -35 -9 -43 -4 -8 2 -1 15 14 l22 28 18 -30 c10 -17 24 -31 30 -31
16 0 39 -26 39 -45 0 -14 -7 -15 -47 -9 -63 11 -112 7 -137 -10 -18 -12 -115
-204 -145 -288 -7 -19 -18 -28 -32 -28 -31 0 -69 -27 -114 -81 -22 -26 -43
-48 -47 -48 -17 -2 -61 21 -52 27 15 10 88 108 216 292 64 91 143 191 176 223
33 31 62 57 65 57 2 0 3 -13 2 -28z m2895 -35 c14 -6 26 -12 27 -12 2 -1 -43
-71 -100 -156 -56 -85 -124 -194 -150 -241 l-48 -86 -30 16 c-50 29 -34 88 75
267 57 95 76 119 92 117 15 -3 17 -1 7 9 -19 20 -15 39 8 39 15 0 19 5 17 20
-2 14 5 25 22 34 26 13 38 12 80 -7z m-180 -68 c0 -7 -22 -51 -50 -98 -27 -48
-54 -98 -60 -111 -12 -29 -6 50 12 158 l10 62 44 0 c26 0 44 -5 44 -11z
m-3538 -741 c-7 -7 -12 -8 -12 -2 0 14 12 26 19 19 2 -3 -1 -11 -7 -17z"/>
<path d="M6225 4510 c-3 -5 -1 -10 4 -10 6 0 11 5 11 10 0 6 -2 10 -4 10 -3 0
-8 -4 -11 -10z"/>
<path d="M5897 6453 c-4 -3 -7 -11 -7 -17 0 -6 5 -5 12 2 6 6 9 14 7 17 -3 3
-9 2 -12 -2z"/>
<path d="M7917 477 c-210 -232 -388 -460 -371 -476 3 -3 16 7 28 23 74 102
159 199 284 326 132 135 142 147 140 179 l-3 34 -78 -86z"/>
<path d="M7888 269 c-106 -122 -208 -252 -208 -263 0 -20 30 1 60 42 19 25 86
99 148 164 103 106 113 120 110 149 -3 33 -4 32 -110 -92z"/>
<path d="M7969 193 c-67 -72 -150 -188 -139 -191 7 -3 48 33 92 79 65 69 78
89 76 112 l-3 29 -26 -29z"/>
<path d="M7978 35 c-23 -30 -22 -35 2 -35 16 0 20 7 20 30 0 36 0 36 -22 5z"/>
</g>
</svg>
