<?xml version="1.0" standalone="no"?>
<!DOCTYPE svg PUBLIC "-//W3C//DTD SVG 20010904//EN"
 "http://www.w3.org/TR/2001/REC-SVG-20010904/DTD/svg10.dtd">
<svg version="1.0" xmlns="http://www.w3.org/2000/svg"
 width="338.000000pt" height="360.000000pt" viewBox="0 0 338.000000 360.000000"
 preserveAspectRatio="xMidYMid meet">

<g transform="translate(0.000000,360.000000) scale(0.100000,-0.100000)"
fill="#fff" stroke="none">
<path d="M0 1800 c0 -1687 1 -1800 17 -1800 13 0 14 3 5 12 -7 7 -12 22 -12
34 0 31 37 42 55 17 7 -10 19 -18 27 -18 17 0 37 18 31 28 -2 4 0 7 5 7 6 0
12 -7 16 -15 7 -20 46 -20 46 0 0 21 27 30 45 15 21 -18 77 8 69 32 -4 14 0
18 20 18 16 0 26 6 26 15 0 21 20 19 20 -2 1 -11 7 -4 15 15 11 24 20 32 40
32 14 0 25 -4 25 -10 0 -5 20 -3 47 5 25 8 50 12 54 9 15 -9 59 28 59 50 0 27
60 68 81 55 19 -12 29 -11 29 2 0 5 -4 7 -10 4 -5 -3 -10 1 -10 9 0 9 8 16 18
16 10 0 23 5 30 12 9 9 6 16 -16 30 -15 11 -20 18 -12 17 32 -3 39 2 36 28 -2
19 -10 29 -23 31 -29 4 -50 81 -27 99 9 6 13 17 9 22 -3 6 1 14 10 18 10 3 21
0 25 -7 6 -9 10 -7 15 9 7 23 30 28 38 9 4 -10 6 -10 6 0 1 6 7 12 15 12 9 0
12 7 9 20 -6 23 -33 27 -33 5 0 -8 -4 -15 -10 -15 -14 0 -12 19 4 35 12 12 18
12 45 -1 31 -16 51 -12 51 9 1 18 38 59 49 53 11 -7 34 18 24 27 -3 4 -1 12 5
19 10 12 12 19 12 36 0 4 17 8 37 10 44 3 48 6 38 29 -5 10 -7 21 -7 26 1 4
-5 7 -13 7 -8 0 -15 5 -15 11 0 12 -38 49 -50 49 -3 0 -12 -6 -19 -12 -12 -11
-13 -10 -7 6 5 15 2 17 -14 13 -13 -3 -20 0 -20 9 0 8 -6 11 -15 8 -8 -3 -17
0 -20 8 -3 8 -21 20 -39 28 -27 10 -32 17 -28 36 2 13 9 24 14 24 6 0 7 11 4
25 -4 14 -2 25 4 25 5 0 10 7 10 15 0 8 7 15 14 15 12 0 11 8 -6 40 -20 37
-41 54 -36 29 2 -6 -2 -13 -8 -16 -19 -7 -24 25 -9 54 19 36 19 54 0 79 -11
14 -14 15 -9 2 4 -13 -1 -16 -35 -14 -42 2 -70 16 -33 16 26 0 28 15 6 37 -8
9 -13 21 -11 27 2 6 -5 19 -15 29 -12 11 -18 13 -19 5 -1 -7 -5 -2 -9 12 l-8
25 -13 -32 c-16 -38 -34 -44 -25 -8 4 14 1 29 -7 37 -8 7 -12 22 -10 33 3 11
1 16 -4 10 -14 -17 -43 -17 -43 -1 0 10 -8 15 -23 13 -17 -2 -22 3 -20 20 2
21 0 22 -47 17 l-50 -5 -2 63 c0 35 0 74 1 86 3 29 -19 59 -30 41 -10 -17 -42
-2 -35 17 3 8 -1 22 -9 30 -8 9 -15 24 -15 34 0 10 -5 20 -12 22 -7 3 -9 12
-4 23 5 14 10 15 18 7 9 -9 14 -6 22 10 13 26 36 35 36 15 0 -8 7 -20 15 -27
13 -11 15 -7 15 24 0 36 32 82 49 72 12 -8 51 32 51 53 0 14 6 17 25 13 18 -3
25 0 25 11 0 8 4 17 10 19 14 4 -4 64 -19 61 -6 -2 -11 2 -11 7 0 6 5 10 10
10 11 0 13 30 4 55 -6 13 -9 14 -16 3 -7 -10 -11 -10 -15 0 -2 6 -9 12 -14 12
-6 0 -5 -9 1 -21 7 -11 9 -23 6 -26 -11 -11 -36 20 -36 43 0 25 -15 33 -23 12
-3 -8 -6 -5 -6 6 -1 15 -4 16 -15 7 -10 -9 -16 -9 -21 -1 -9 15 12 38 38 42
12 2 22 8 22 15 0 6 3 14 6 17 13 14 -4 56 -25 62 -17 4 -22 13 -23 40 -1 37
16 47 24 14 9 -32 32 -23 49 20 9 23 21 37 27 33 6 -3 7 -1 3 5 -7 12 3 62 13
62 3 0 19 -20 34 -45 16 -25 32 -45 35 -45 9 0 7 58 -1 67 -4 3 5 17 20 30
l26 25 21 -24 c14 -16 34 -25 61 -27 22 -2 42 -6 45 -11 3 -4 14 -4 25 1 11 4
16 8 11 8 -5 1 -3 8 4 16 14 17 45 21 35 5 -4 -6 3 -27 15 -47 l21 -36 -38 7
c-79 13 -76 14 -103 -41 -15 -30 -30 -50 -38 -48 -9 3 -8 -5 3 -32 20 -48 19
-56 -7 -47 -20 6 -21 5 -9 -10 10 -12 10 -16 1 -16 -9 0 -9 -4 1 -17 13 -15
11 -16 -16 -9 l-30 6 33 -30 c17 -16 32 -32 32 -35 0 -9 -61 -5 -81 5 -11 7
-19 7 -19 1 0 -17 66 -51 99 -51 37 0 38 -5 7 -61 -13 -24 -31 -67 -40 -95
-19 -59 -46 -91 -83 -100 -21 -6 -23 -8 -10 -16 24 -13 78 13 111 53 l28 34
-7 -55 c-12 -87 -38 -126 -91 -136 -18 -3 -48 -1 -66 5 l-33 11 29 -26 c54
-47 127 -21 182 65 l28 44 14 -39 c18 -50 20 -136 4 -166 -33 -58 -121 -85
-181 -54 -32 17 -32 17 -22 -3 6 -10 30 -27 54 -36 44 -17 57 -15 141 20 14 6
17 5 12 -3 -12 -20 13 -78 47 -112 34 -33 87 -60 118 -60 22 0 23 -1 7 -35
-12 -27 -54 -35 -76 -13 -22 22 -12 -5 10 -29 19 -21 20 -26 8 -34 -11 -8 -2
-9 33 -6 42 4 50 2 56 -16 5 -14 10 -17 15 -9 4 7 18 12 32 12 21 0 24 -5 24
-34 0 -39 -28 -66 -69 -66 -20 0 -22 -3 -13 -12 9 -9 22 -9 50 -2 30 8 41 7
51 -4 18 -18 0 -59 -31 -72 -22 -8 -22 -9 4 -9 15 -1 30 4 33 9 14 23 24 6 44
-77 20 -78 22 -102 15 -221 -4 -73 -10 -135 -14 -137 -5 -3 -28 4 -51 15 -80
36 -128 22 -144 -43 -4 -15 -15 -33 -25 -40 -10 -7 -28 -29 -40 -50 -21 -35
-22 -43 -11 -94 17 -85 15 -97 -18 -110 -21 -7 -31 -20 -36 -44 -13 -60 -52
-86 -217 -144 -84 -29 -202 -71 -263 -94 l-110 -40 1508 0 c1003 -1 1506 2
1502 9 -3 6 -1 10 4 10 6 0 11 -4 11 -10 0 -5 25 -10 55 -10 l55 0 0 1800 0
1800 -1690 0 -1690 0 0 -1800z m1753 1488 c2 -7 2 -21 -1 -31 -4 -15 -7 -16
-13 -5 -12 17 -11 48 0 48 5 0 11 -6 14 -12z m-197 -23 c9 -8 33 -18 56 -21
27 -5 35 -10 26 -15 -10 -7 -9 -9 5 -9 9 0 17 -4 17 -10 0 -5 9 -10 19 -10 11
0 23 5 26 10 9 15 25 12 25 -4 0 -8 4 -17 8 -20 12 -7 56 6 44 13 -13 8 -25
51 -15 51 5 0 14 -5 21 -12 13 -13 42 6 42 28 0 18 14 18 30 -1 7 -8 19 -15
26 -15 8 0 17 -13 21 -30 3 -16 10 -30 15 -30 5 0 6 -5 3 -10 -4 -6 -11 -8
-16 -5 -5 4 -9 1 -9 -4 0 -6 4 -11 9 -11 16 0 29 25 25 48 -3 17 1 22 16 22
11 0 20 -7 20 -15 0 -8 -5 -15 -11 -15 -6 0 -3 -7 5 -16 22 -21 20 -27 -5 -19
-15 5 -19 4 -15 -4 4 -6 13 -11 20 -11 17 0 27 -35 19 -72 -7 -36 -47 -58
-103 -58 -47 0 -46 14 4 36 l31 15 -28 -4 c-24 -4 -28 -1 -26 17 2 35 0 35
-35 0 -44 -44 -73 -44 -117 2 -18 19 -57 49 -85 65 -29 16 -57 36 -64 44 -16
19 -30 19 -30 0 0 -18 -14 -19 -28 -2 -14 16 -3 67 14 67 8 0 14 5 14 10 0 14
9 12 26 -5z m488 -69 c11 -1 24 3 28 8 9 13 58 -13 58 -31 0 -7 7 -13 16 -13
10 0 14 -6 10 -15 -3 -8 -2 -14 2 -14 26 4 41 -3 36 -16 -6 -14 7 -20 31 -15
29 6 75 6 75 1 0 -4 -6 -13 -12 -19 -10 -10 -8 -12 7 -11 50 5 74 -2 80 -22 6
-17 9 -18 16 -8 6 10 10 7 18 -13 16 -41 35 -47 26 -8 -5 23 -4 30 4 26 6 -4
11 -14 11 -22 0 -8 9 -24 20 -36 11 -12 20 -17 20 -11 0 7 14 8 43 2 58 -11
77 -10 49 3 -33 16 -24 42 16 46 24 2 32 -1 32 -12 0 -9 7 -16 15 -16 8 0 15
-7 15 -16 0 -10 -6 -14 -15 -10 -18 6 -20 -5 -4 -21 8 -8 5 -14 -10 -23 -12
-6 -19 -15 -16 -20 3 -5 0 -12 -6 -16 -8 -4 1 -14 22 -25 44 -23 44 -23 57 4
8 16 11 17 11 6 1 -9 10 -23 21 -30 11 -8 22 -25 24 -39 2 -14 8 -24 14 -23 6
2 10 -6 9 -17 -1 -18 -49 -45 -60 -34 -2 3 -7 -1 -10 -9 -3 -8 9 -28 29 -46
38 -37 44 -61 14 -61 -21 0 -21 0 7 -55 9 -17 7 -20 -16 -22 -14 -1 -32 3 -38
9 -10 8 -13 6 -13 -6 0 -9 -7 -16 -15 -16 -8 0 -23 -5 -34 -11 -11 -7 -32 -9
-54 -5 -40 8 -41 9 -27 35 8 15 6 17 -15 13 -42 -8 -57 3 -43 33 6 14 15 25
20 25 4 0 8 4 8 9 0 6 -15 4 -34 -4 -41 -17 -48 -12 -30 23 20 39 17 102 -8
169 -24 66 -38 86 -38 58 -1 -11 -7 -31 -15 -45 l-13 -25 -11 28 c-6 16 -11
31 -11 35 0 3 -10 21 -22 39 -25 35 -45 46 -28 14 12 -24 13 -128 1 -135 -5
-3 -14 8 -21 25 -7 16 -32 43 -55 59 -37 26 -41 32 -38 62 3 21 1 29 -5 20 -7
-10 -23 -3 -70 28 -62 41 -62 42 -41 59 21 17 21 17 -15 13 -35 -4 -36 -3 -36
29 0 19 -7 56 -15 82 -9 30 -10 45 -3 41 6 -4 20 -7 32 -8z m277 -20 c19 -8
14 -46 -5 -46 -16 0 -42 21 -49 40 -5 17 23 20 54 6z m-1151 -92 c0 -8 5 -14
11 -14 6 0 17 -7 26 -15 8 -9 23 -13 33 -10 10 3 22 0 26 -6 5 -8 12 2 19 27
9 33 15 39 40 42 17 1 37 -2 45 -7 13 -9 12 -12 -5 -26 -18 -13 -18 -17 -5
-27 11 -9 14 -28 12 -65 -2 -29 -7 -53 -11 -53 -5 0 -25 18 -44 40 -21 25 -38
36 -42 30 -5 -8 -11 -8 -20 0 -8 6 -22 11 -32 10 -33 -4 -43 0 -43 15 0 8 -16
19 -40 25 -40 11 -50 26 -29 47 14 14 59 4 59 -13z m478 9 c6 -19 -25 -16 -32
3 -4 11 -1 14 11 12 9 -2 18 -9 21 -15z m-193 -18 c6 -20 6 -20 17 3 6 12 20
22 31 22 17 0 15 -4 -12 -32 -17 -17 -31 -42 -31 -55 0 -13 -4 -23 -9 -23 -12
0 -55 68 -58 92 -4 27 54 21 62 -7z m975 0 c0 -8 -4 -15 -10 -15 -5 0 -10 7
-10 15 0 8 5 15 10 15 6 0 10 -7 10 -15z m130 5 c0 -5 -5 -10 -11 -10 -5 0 -7
5 -4 10 3 6 8 10 11 10 2 0 4 -4 4 -10z m-20 -50 c0 -4 -11 -7 -25 -7 -20 0
-23 2 -14 13 10 13 39 9 39 -6z m-1430 -22 c0 -7 4 -19 9 -27 8 -12 12 -12 26
2 9 10 22 14 28 10 7 -4 6 -8 -4 -12 -15 -6 -20 -20 -23 -66 0 -16 -6 -29 -12
-28 -5 1 -15 -6 -21 -16 -10 -15 -8 -17 11 -14 18 4 28 -3 45 -32 12 -21 21
-39 19 -40 -2 -1 -18 -10 -35 -19 -21 -11 -33 -24 -33 -37 0 -12 -5 -19 -12
-17 -8 3 -15 28 -18 59 -4 43 -6 49 -12 29 -4 -14 -8 -50 -8 -80 l-1 -55 -15
29 c-12 22 -18 26 -25 15 -6 -10 -14 -1 -28 31 -11 25 -21 37 -21 27 0 -26
-24 -15 -28 13 -6 39 8 90 24 90 8 0 12 5 9 11 -4 5 -1 24 6 40 12 30 12 31
71 24 37 -5 58 -3 58 3 0 6 -5 12 -11 14 -14 5 -22 58 -8 58 5 0 9 -6 9 -12z
m304 -45 c18 -52 20 -83 7 -83 -18 0 -28 26 -34 83 -6 67 4 67 27 0z m681 2
c16 -13 26 -27 23 -31 -4 -3 -21 5 -38 20 -17 14 -36 26 -41 26 -5 0 -9 4 -9
9 0 14 32 2 65 -24z m-847 -12 c-2 -5 -10 -25 -18 -46 -16 -42 -33 -44 -38 -3
-5 41 4 56 34 56 14 0 24 -3 22 -7z m1519 -23 c-3 -13 0 -20 9 -20 8 0 14 -4
14 -10 0 -12 -11 -13 -26 -2 -12 9 -13 52 -1 52 5 0 7 -9 4 -20z m-813 -9 c4
-5 -3 -7 -14 -4 -23 6 -26 13 -6 13 8 0 17 -4 20 -9z m-654 -26 c28 -29 20
-43 -15 -27 -15 7 -25 20 -25 32 0 27 12 25 40 -5z m-370 -100 c0 -8 -4 -15
-10 -15 -5 0 -10 7 -10 15 0 8 5 15 10 15 6 0 10 -7 10 -15z m-22 -48 c6 -6
14 -26 18 -42 3 -17 13 -38 22 -47 17 -20 10 -73 -13 -104 -12 -15 -16 -16
-24 -5 -5 7 -13 11 -19 7 -6 -3 -17 -3 -25 0 -18 6 -29 42 -16 50 16 10 9 21
-21 34 -28 12 -41 30 -21 30 16 0 62 50 55 61 -3 6 0 15 7 20 19 12 25 11 37
-4z m1862 -17 c0 -5 -2 -10 -4 -10 -3 0 -8 5 -11 10 -3 6 -1 10 4 10 6 0 11
-4 11 -10z m24 -116 c4 -10 1 -14 -6 -12 -15 5 -23 28 -10 28 5 0 13 -7 16
-16z m84 -36 c14 -24 14 -27 -2 -44 -14 -13 -20 -14 -26 -5 -4 7 -10 12 -14
11 -18 -4 -29 8 -23 24 4 10 13 16 21 13 10 -4 12 0 8 15 -7 28 15 20 36 -14z
m-88 -13 c0 -8 -4 -15 -10 -15 -5 0 -10 7 -10 15 0 8 5 15 10 15 6 0 10 -7 10
-15z m-1800 -35 c0 -10 -7 -21 -16 -24 -23 -9 -26 -3 -14 28 11 29 30 27 30
-4z m1804 1 c3 -5 -1 -14 -9 -21 -13 -10 -15 -9 -15 9 0 21 14 28 24 12z m-61
-38 c-6 -45 -41 -109 -77 -142 -43 -41 -41 -15 4 38 33 39 42 58 42 88 0 44 4
53 23 53 10 0 12 -10 8 -37z m152 -2 c3 -5 1 -12 -5 -16 -5 -3 -10 1 -10 9 0
18 6 21 15 7z m-348 -26 c3 -9 3 -19 -1 -22 -8 -9 -37 18 -30 28 8 14 24 11
31 -6z m273 5 c0 -5 -4 -10 -10 -10 -5 0 -10 5 -10 10 0 6 5 10 10 10 6 0 10
-4 10 -10z m-201 -19 c7 -13 6 -24 -4 -37 -16 -23 -20 -19 -28 24 -5 24 -3 32
8 32 8 0 19 -8 24 -19z m55 4 c-4 -8 -10 -15 -15 -15 -5 0 -9 7 -9 15 0 8 7
15 15 15 9 0 12 -6 9 -15z m216 -5 c0 -5 -4 -10 -10 -10 -5 0 -10 5 -10 10 0
6 5 10 10 10 6 0 10 -4 10 -10z m-2040 -8 c0 -13 -56 -63 -63 -56 -6 7 1 33
16 52 10 13 47 17 47 4z m1970 -12 c0 -5 -9 -8 -20 -7 -22 1 -27 13 -7 20 14
5 27 -1 27 -13z m-1885 -30 c4 -6 -12 -10 -42 -10 -35 0 -44 3 -33 10 20 13
67 13 75 0z m1888 -40 c-13 -10 -23 -28 -23 -41 0 -22 0 -22 15 -3 8 10 15 17
15 14 11 -50 9 -80 -5 -80 -8 0 -15 -9 -15 -19 0 -11 -6 -21 -12 -23 -8 -3
-13 -26 -13 -66 0 -63 6 -75 24 -44 8 13 10 14 11 2 0 -13 1 -13 10 0 8 13 10
12 10 -2 0 -10 5 -18 10 -18 14 0 13 -27 -1 -32 -8 -3 -9 -10 -1 -23 5 -11 15
-32 21 -47 6 -16 17 -28 25 -28 7 0 16 -13 20 -30 3 -16 10 -30 16 -30 6 0 8
5 5 10 -3 6 -1 10 4 10 6 0 11 -7 11 -15 0 -8 7 -15 15 -15 10 0 14 -9 13 -24
-2 -19 -5 -22 -15 -14 -10 8 -12 4 -9 -21 2 -17 -1 -31 -5 -31 -5 0 -9 4 -9
10 0 6 -10 5 -26 -2 -23 -11 -24 -13 -10 -24 20 -14 20 -24 1 -24 -8 0 -15 -9
-15 -20 0 -22 -26 -28 -32 -8 -3 8 -10 3 -18 -12 -7 -13 -19 -31 -27 -38 -15
-16 -17 -32 -3 -32 15 0 50 -33 50 -48 0 -7 -7 -15 -15 -18 -8 -4 -15 -12 -15
-20 0 -8 -7 -14 -15 -14 -25 0 -17 -23 22 -57 26 -23 32 -33 20 -33 -14 0 -16
-6 -11 -27 7 -26 6 -27 -10 -14 -13 11 -20 11 -28 3 -7 -7 -21 -12 -32 -13
-18 -1 -17 -2 4 -9 14 -4 20 -8 13 -9 -6 -1 -13 -13 -15 -28 -2 -20 -9 -29
-26 -31 -16 -2 -22 -8 -18 -18 4 -9 -2 -14 -15 -14 -15 0 -19 -5 -15 -15 4
-11 -2 -15 -20 -15 -20 0 -25 -4 -20 -16 3 -9 6 -21 6 -29 0 -7 20 -18 44 -24
41 -10 46 -15 60 -61 1 -3 5 -11 9 -18 5 -8 4 -11 -4 -10 -16 4 -18 -53 -2
-59 23 -9 14 -25 -9 -17 -20 6 -21 5 -10 -9 10 -12 10 -16 0 -21 -10 -5 -10
-7 0 -12 16 -8 16 -34 -1 -34 -7 0 -18 5 -25 12 -9 9 -12 7 -12 -12 0 -18 -3
-21 -9 -11 -5 7 -14 10 -20 7 -6 -4 -9 -12 -6 -17 4 -5 2 -9 -4 -9 -6 0 -8 -6
-5 -14 3 -8 1 -17 -5 -21 -6 -3 -14 1 -17 10 -6 13 -8 14 -15 3 -12 -17 -11
-31 0 -23 5 3 12 1 16 -5 3 -5 1 -10 -6 -10 -6 0 -9 -8 -6 -20 6 -22 -8 -28
-16 -7 -3 7 -6 5 -6 -5 -1 -10 -6 -18 -12 -18 -5 0 -7 -4 -4 -10 3 -5 2 -10
-3 -10 -10 0 -10 59 0 76 4 6 3 24 -2 40 -5 18 -9 22 -9 10 -1 -13 -6 -17 -21
-13 -11 3 -20 1 -20 -4 0 -5 -7 -9 -16 -9 -8 0 -12 -4 -9 -10 7 -12 -2 -12
-30 -1 -11 5 -25 4 -32 -1 -7 -6 -13 -8 -13 -4 0 3 -9 -3 -20 -14 -11 -11 -32
-20 -46 -20 -26 0 -26 -2 -20 -42 4 -23 12 -48 17 -55 6 -6 8 -21 4 -33 -3
-11 -3 -20 2 -20 17 0 32 40 27 76 -3 24 0 41 8 46 22 13 38 9 38 -11 0 -11 5
-23 11 -27 8 -4 7 -9 -2 -15 -11 -7 -11 -11 3 -21 23 -19 34 -78 14 -78 -23 0
-34 -90 -12 -102 9 -5 16 -16 16 -24 0 -8 4 -13 9 -10 5 4 14 -6 19 -21 7 -18
11 -22 11 -10 1 18 21 25 21 6 0 -5 3 -8 8 -6 11 7 52 -11 52 -23 0 -5 -6 -10
-14 -10 -9 0 -12 -7 -9 -20 3 -11 0 -20 -6 -20 -6 0 -3 -8 7 -18 11 -12 28
-17 50 -15 18 2 32 -1 32 -7 0 -7 7 -18 15 -26 13 -14 15 -13 15 3 0 15 2 16
11 3 9 -12 12 -13 16 -1 5 11 7 11 14 0 8 -12 11 -11 19 1 8 12 12 12 18 2 13
-20 61 -25 68 -7 3 8 10 12 16 9 5 -3 17 4 27 15 11 13 25 19 35 15 27 -10 15
-37 -21 -48 -13 -4 -23 -14 -23 -22 0 -8 -6 -14 -12 -14 -9 0 -8 -4 2 -10 12
-8 13 -12 2 -19 -33 -20 3 -46 43 -31 33 13 68 13 60 1 -3 -6 6 -7 22 -2 22 5
33 2 49 -14 11 -12 18 -27 16 -34 -5 -16 38 -53 54 -47 15 6 47 -51 37 -67 -3
-5 -1 -7 5 -4 16 11 42 -3 42 -23 0 -10 6 -21 13 -24 6 -3 -4 -3 -23 0 -66 11
-560 206 -597 236 -20 15 -44 28 -55 28 -24 0 -88 50 -88 70 0 8 -14 28 -31
44 -41 41 -46 68 -19 111 12 19 27 35 33 35 6 0 -3 15 -21 33 -18 18 -32 37
-32 42 0 6 -20 11 -44 12 -32 2 -51 -3 -70 -18 -15 -12 -29 -20 -30 -18 -6 6
-42 409 -38 414 3 2 12 1 21 -4 27 -14 79 -23 61 -11 -13 8 -13 10 1 10 9 0
27 9 40 20 l24 19 -32 -11 c-22 -8 -41 -9 -59 -3 -39 14 -43 35 -7 35 39 0 47
10 23 27 -23 16 -26 55 -6 72 12 10 17 8 26 -10 9 -15 14 -18 20 -9 4 6 20 11
36 9 40 -3 117 33 132 62 11 21 12 18 7 -26 -5 -46 -4 -48 10 -29 8 12 20 41
26 65 11 43 7 70 -26 177 -7 21 -5 22 51 22 58 1 59 1 29 15 l-30 13 36 1 c19
1 39 -3 45 -8 5 -5 26 -19 47 -30 57 -32 41 -3 -23 42 -42 29 -49 37 -31 37
24 0 86 42 94 64 4 9 -6 7 -31 -6 -69 -35 -83 -19 -52 55 24 55 31 147 18 223
l-8 40 47 0 c42 -1 48 2 66 32 l19 33 -35 -17 c-19 -9 -43 -14 -53 -10 -15 6
-14 9 12 28 16 11 37 31 47 45 19 24 18 24 -32 -4 -38 -22 -53 -25 -62 -16 -9
9 -7 19 10 46 27 43 27 97 1 172 -25 71 -25 68 3 60 l22 -6 -23 19 -24 18 34
26 c18 15 46 38 62 52 16 14 33 27 38 27 4 1 12 2 17 3 5 0 13 4 17 9 4 4 15
0 23 -8 15 -15 14 -18 -6 -35z m-2438 -20 c16 -18 16 -20 2 -20 -10 0 -17 -6
-18 -12 -1 -15 -17 21 -18 40 -1 18 13 15 34 -8z m540 -1 c4 -6 -2 -13 -14
-16 -12 -3 -21 -9 -21 -14 0 -8 -73 -59 -85 -59 -11 0 -4 37 11 58 25 36 94
56 109 31z m1925 -119 c0 -5 -4 -10 -10 -10 -5 0 -10 5 -10 10 0 6 5 10 10 10
6 0 10 -4 10 -10z m-220 -26 c12 -32 13 -44 1 -44 -5 0 -14 14 -20 31 -13 39
-13 39 -1 39 6 0 15 -12 20 -26z m-2110 -96 c0 -49 -5 -47 -14 5 -4 23 -3 37
4 37 5 0 10 -19 10 -42z m60 -8 c0 -5 -2 -10 -4 -10 -3 0 -8 5 -11 10 -3 6 -1
10 4 10 6 0 11 -4 11 -10z m1539 -208 c62 -30 76 -61 79 -173 3 -68 0 -104 -8
-114 -10 -12 -46 -15 -191 -15 l-179 0 -20 33 c-33 53 -62 154 -55 186 9 40
41 80 79 98 44 19 246 10 295 -15z m-575 -13 c54 -47 55 -79 7 -178 -22 -45
-45 -89 -52 -97 -9 -11 -42 -14 -148 -14 -75 0 -142 4 -148 8 -15 10 -33 97
-33 159 0 25 7 60 16 79 28 58 69 72 216 73 106 1 108 1 142 -30z m1051 -132
c-8 -31 -53 -79 -66 -71 -5 3 0 18 11 33 11 16 24 41 30 56 13 35 34 20 25
-18z m365 12 c0 -5 -4 -9 -10 -9 -5 0 -10 7 -10 16 0 8 5 12 10 9 6 -3 10 -10
10 -16z m-360 -99 c-18 -33 -25 -15 -9 22 9 23 15 28 17 16 2 -9 -2 -27 -8
-38z m-2235 -20 c3 -5 -1 -10 -10 -10 -9 0 -13 5 -10 10 3 6 8 10 10 10 2 0 7
-4 10 -10z m566 -150 c-9 -5 -5 -9 13 -14 34 -8 34 -26 0 -26 -16 0 -39 13
-60 34 -28 28 -34 42 -34 76 0 23 5 50 11 62 10 18 14 13 47 -52 27 -54 32
-74 23 -80z m-221 -100 c0 -5 -7 -10 -16 -10 -8 0 -12 5 -9 10 3 6 10 10 16
10 5 0 9 -4 9 -10z m374 -36 c7 -19 -2 -37 -15 -29 -12 8 -12 45 0 45 5 0 12
-7 15 -16z m-403 -17 c-13 -13 -26 -3 -16 12 3 6 11 8 17 5 6 -4 6 -10 -1 -17z
m1766 -44 c-7 -41 -20 -53 -57 -53 -22 1 -23 2 -9 13 9 7 23 27 33 45 23 44
40 42 33 -5z m-2000 -17 c-4 -9 3 -16 16 -20 18 -4 19 -8 9 -18 -11 -11 -16
-9 -28 6 -17 24 -18 46 -3 46 6 0 9 -6 6 -14z m183 10 c0 -3 -4 -8 -10 -11 -5
-3 -10 -1 -10 4 0 6 5 11 10 11 6 0 10 -2 10 -4z m2108 -59 c2 -10 -3 -17 -12
-17 -18 0 -29 16 -21 31 9 14 29 6 33 -14z m-2098 -7 c0 -5 -5 -10 -11 -10 -5
0 -7 5 -4 10 3 6 8 10 11 10 2 0 4 -4 4 -10z m147 -56 c-9 -9 -28 6 -21 18 4
6 10 6 17 -1 6 -6 8 -13 4 -17z m-277 -154 c0 -5 -4 -10 -10 -10 -5 0 -10 5
-10 10 0 6 5 10 10 10 6 0 10 -4 10 -10z m280 0 c0 -5 -4 -10 -10 -10 -5 0
-10 5 -10 10 0 6 5 10 10 10 6 0 10 -4 10 -10z m2030 -99 c0 -5 -6 -12 -12
-14 -8 -4 -7 -6 3 -6 17 -1 34 -29 24 -39 -3 -3 -5 0 -5 6 0 7 -10 12 -23 12
-13 0 -29 6 -35 12 -10 10 -15 10 -23 -2 -7 -11 -8 -4 -6 25 2 22 9 40 15 40
6 0 13 3 17 7 7 7 45 -27 45 -41z m-250 -26 c0 -8 -7 -15 -15 -15 -16 0 -20
12 -8 23 11 12 23 8 23 -8z m-60 -35 c0 -5 -4 -10 -10 -10 -5 0 -10 5 -10 10
0 6 5 10 10 10 6 0 10 -4 10 -10z m80 -10 c0 -5 -7 -10 -15 -10 -8 0 -15 5
-15 10 0 6 7 10 15 10 8 0 15 -4 15 -10z m-45 -10 c-3 -5 -12 -10 -18 -10 -7
0 -6 4 3 10 19 12 23 12 15 0z m25 -30 c0 -5 -4 -10 -10 -10 -5 0 -10 5 -10
10 0 6 5 10 10 10 6 0 10 -4 10 -10z m-1992 -109 c3 -8 -1 -12 -9 -9 -7 2 -15
10 -17 17 -3 8 1 12 9 9 7 -2 15 -10 17 -17z m-148 -1 c0 -5 -5 -10 -11 -10
-5 0 -7 5 -4 10 3 6 8 10 11 10 2 0 4 -4 4 -10z m230 -137 c0 -5 -5 -15 -10
-23 -8 -12 -10 -11 -10 8 0 12 5 22 10 22 6 0 10 -3 10 -7z m2130 -127 c0 -15
-18 -31 -26 -23 -7 7 7 37 17 37 5 0 9 -6 9 -14z m-60 -26 c0 -5 -4 -10 -10
-10 -5 0 -10 5 -10 10 0 6 5 10 10 10 6 0 10 -4 10 -10z m-2010 -36 c0 -8 -4
-12 -10 -9 -5 3 -10 10 -10 16 0 5 5 9 10 9 6 0 10 -7 10 -16z m2312 -13 c15
-18 15 -21 -2 -39 -10 -11 -16 -23 -13 -26 4 -3 2 -6 -3 -6 -5 0 -10 20 -10
45 0 50 4 54 28 26z m-52 -57 c0 -19 -16 -18 -24 2 -11 27 -7 37 9 24 8 -7 15
-19 15 -26z m-2390 -44 c0 -5 -5 -10 -11 -10 -5 0 -7 5 -4 10 3 6 8 10 11 10
2 0 4 -4 4 -10z m2578 -98 c6 -18 -15 -14 -22 4 -4 10 -1 14 6 12 6 -2 14 -10
16 -16z m75 -43 c10 -11 16 -23 14 -26 -6 -6 -47 28 -47 39 0 14 15 8 33 -13z
m-3073 7 c0 -3 -4 -8 -10 -11 -5 -3 -10 -1 -10 4 0 6 5 11 10 11 6 0 10 -2 10
-4z"/>
<path d="M1934 3133 c18 -22 36 -22 36 -2 0 6 -5 7 -10 4 -6 -4 -19 -1 -28 6
-13 11 -13 9 2 -8z"/>
<path d="M2911 1834 c0 -11 3 -14 6 -6 3 7 2 16 -1 19 -3 4 -6 -2 -5 -13z"/>
<path d="M2635 1210 c3 -5 8 -10 11 -10 2 0 4 5 4 10 0 6 -5 10 -11 10 -5 0
-7 -4 -4 -10z"/>
<path d="M2500 909 c0 -5 5 -7 10 -4 6 3 10 8 10 11 0 2 -4 4 -10 4 -5 0 -10
-5 -10 -11z"/>
<path d="M2520 460 c0 -5 5 -10 11 -10 5 0 7 5 4 10 -3 6 -8 10 -11 10 -2 0
-4 -4 -4 -10z"/>
<path d="M569 1602 c6 -12 9 -28 5 -34 -4 -7 -3 -8 4 -4 17 10 15 31 -5 47
-15 13 -15 12 -4 -9z"/>
<path d="M570 1546 c0 -2 7 -9 15 -16 13 -11 14 -10 9 4 -5 14 -24 23 -24 12z"/>
</g>
</svg>
